# xmcd CD database file
#
# Track frame offsets:
#	150
#	23061
#	37628
#	56090
#	72711
#	87164
#	110505
#	135780
#	173106
#	200649
#	221020
#	248734
#	273630
#	299527
#
# Disc length: 4371 seconds
#
# Revision: 0
# Processed by: cddbd v1.5.2PL0 Copyright (c) Steve Scherf et al.
# Submitted via: CDex 1.70beta2
#
DISCID=cf11110e
DTITLE=Various Artist - カフェで流れるJAZZ特選３０ Disc2
DYEAR=2012
DGENRE=Jazz
TTITLE0=dance with stranger
TTITLE1=Lua Color - Breathe on Me
TTITLE2=Clear Water
TTITLE3=Love Affair
TTITLE4=Midnight Cafe
TTITLE5=Epilogue
TTITLE6=dance with stranger - slow -
TTITLE7=SAMURAI
TTITLE8=O Mar Em Paz
TTITLE9=Milano
TTITLE10=Lua Color
TTITLE11=Flower
TTITLE12=Sleepiess night
TTITLE13=Lua Color - piano ver -
EXTD=YEAR: 2012
EXTT0=
EXTT1=
EXTT2=
EXTT3=
EXTT4=
EXTT5=
EXTT6=
EXTT7=
EXTT8=
EXTT9=
EXTT10=
EXTT11=
EXTT12=
EXTT13=
PLAYORDER=
